<svg width="40" height="47" viewBox="0 0 40 47" fill="none" xmlns="http://www.w3.org/2000/svg">
<path d="M38.9286 15.1057C39.5179 15.1057 40 14.6236 40 14.0343V10.4629C40 9.87358 39.5179 9.39144 38.9286 9.39144H37.1429V6.53429C37.1429 3.38251 34.5804 0.820007 31.4286 0.820007H5.71429C2.5625 0.820007 0 3.38251 0 6.53429V40.82C0 43.9718 2.5625 46.5343 5.71429 46.5343H31.4286C34.5804 46.5343 37.1429 43.9718 37.1429 40.82V37.9629H38.9286C39.5179 37.9629 40 37.4807 40 36.8914V33.32C40 32.7307 39.5179 32.2486 38.9286 32.2486H37.1429V26.5343H38.9286C39.5179 26.5343 40 26.0522 40 25.4629V21.8914C40 21.3022 39.5179 20.82 38.9286 20.82H37.1429V15.1057H38.9286ZM34.2857 40.82C34.2857 42.3914 33 43.6772 31.4286 43.6772H5.71429C4.14286 43.6772 2.85714 42.3914 2.85714 40.82V6.53429C2.85714 4.96286 4.14286 3.67715 5.71429 3.67715H31.4286C33 3.67715 34.2857 4.96286 34.2857 6.53429V40.82ZM18.5714 25.1057C22.5179 25.1057 25.7143 21.9093 25.7143 17.9629C25.7143 14.0164 22.5179 10.82 18.5714 10.82C14.625 10.82 11.4286 14.0164 11.4286 17.9629C11.4286 21.9093 14.625 25.1057 18.5714 25.1057ZM18.5714 13.6772C20.9375 13.6772 22.8571 15.5968 22.8571 17.9629C22.8571 20.3289 20.9375 22.2486 18.5714 22.2486C16.2054 22.2486 14.2857 20.3289 14.2857 17.9629C14.2857 15.5968 16.2054 13.6772 18.5714 13.6772ZM22.75 26.5343C21.0089 26.5343 20.5714 27.1593 18.5714 27.1593C16.5714 27.1593 16.1339 26.5343 14.3929 26.5343C12.5 26.5343 10.6607 27.3736 9.58929 28.9807C8.94643 29.9361 8.57143 31.0879 8.57143 32.3289V35.82C8.57143 36.2129 8.89286 36.5343 9.28571 36.5343H10.7143C11.1071 36.5343 11.4286 36.2129 11.4286 35.82V32.3289C11.4286 31.7039 11.6161 31.0968 11.9643 30.5789C12.4643 29.8379 13.375 29.4004 14.4018 29.4004C15.5089 29.4004 16.2589 30.0254 18.5804 30.0254C20.8929 30.0254 21.6429 29.4004 22.7589 29.4004C23.7857 29.4004 24.6964 29.8468 25.1964 30.5789C25.5446 31.0968 25.7321 31.7039 25.7321 32.3289V35.82C25.7321 36.2129 26.0536 36.5343 26.4464 36.5343H27.875C28.2679 36.5343 28.5893 36.2129 28.5893 35.82V32.3289C28.5893 31.0879 28.2143 29.9361 27.5714 28.9807C26.4732 27.3736 24.6339 26.5343 22.75 26.5343Z" fill="#939393"/>
</svg>
