<svg width="40" height="46" viewBox="0 0 40 46" fill="none" xmlns="http://www.w3.org/2000/svg">
<path d="M28.5714 31.5386H28.1518C27.0661 31.5386 26.0089 31.7975 24.9821 32.1457C21.75 33.2421 18.2465 33.2421 15.0143 32.1457C13.9893 31.7975 12.9348 31.5403 11.8518 31.5403H11.4286C8.39784 31.5403 5.4912 32.7442 3.34798 34.8871C1.20476 37.0299 0.000473553 39.9364 0 42.9671C0 43.7249 0.30102 44.4516 0.836838 44.9874C1.37266 45.5233 2.09938 45.8243 2.85714 45.8243H37.1429C37.9006 45.8243 38.6273 45.5233 39.1632 44.9874C39.699 44.4516 40 43.7249 40 42.9671C40 39.9361 38.7959 37.0292 36.6526 34.8859C34.5094 32.7426 31.6025 31.5386 28.5714 31.5386ZM2.85714 42.9671C2.85951 40.6946 3.76332 38.5158 5.37027 36.9088C6.97721 35.3019 9.15601 34.3981 11.4286 34.3957H11.8518C12.4696 34.3957 13.1839 34.5403 14.0982 34.8502C17.9245 36.1478 22.0719 36.1478 25.8982 34.8502C26.8188 34.5386 27.5348 34.3939 28.1518 34.3939H28.5714C30.844 34.3963 33.0228 35.3001 34.6297 36.907C36.2367 38.514 37.1405 40.6928 37.1429 42.9653L2.85714 42.9671ZM4.28571 20.11C4.6646 20.11 5.02796 19.9595 5.29587 19.6916C5.56378 19.4237 5.71429 19.0603 5.71429 18.6814V17.2528C5.71429 9.37606 12.1232 2.96713 20 2.96713C27.8768 2.96713 34.2857 9.37606 34.2857 17.2528V18.6814C34.2836 20.5752 33.5304 22.3907 32.1913 23.7298C30.8522 25.0689 29.0366 25.8221 27.1429 25.8243H24.2857C24.2857 25.0665 23.9847 24.3398 23.4489 23.804C22.9131 23.2681 22.1863 22.9671 21.4286 22.9671H18.5714C17.8137 22.9671 17.0869 23.2681 16.5511 23.804C16.0153 24.3398 15.7143 25.0665 15.7143 25.8243C15.7143 26.582 16.0153 27.3088 16.5511 27.8446C17.0869 28.3804 17.8137 28.6814 18.5714 28.6814H27.1429C29.794 28.6781 32.3356 27.6235 34.2103 25.7488C36.0849 23.8742 37.1395 21.3326 37.1429 18.6814V17.2528C37.1429 7.79927 29.4536 0.109985 20 0.109985C10.5464 0.109985 2.85714 7.79927 2.85714 17.2528V18.6814C2.85714 19.0603 3.00765 19.4237 3.27556 19.6916C3.54347 19.9595 3.90683 20.11 4.28571 20.11ZM20 8.68141C21.6553 8.67403 23.2771 9.14829 24.6676 10.0464C26.0582 10.9445 27.1575 12.2277 27.8316 13.7396C28.5057 15.2515 28.7254 16.9268 28.4641 18.5614C28.2028 20.196 27.4717 21.7193 26.3598 22.9457C26.3598 22.9537 26.3714 22.9591 26.3759 22.9671H27.1429C27.8678 22.9655 28.5803 22.7797 29.2137 22.427C29.847 22.0743 30.3803 21.5664 30.7634 20.9511C31.1607 19.785 31.4286 18.5546 31.4286 17.2528C31.4286 14.2218 30.2245 11.3149 28.0812 9.17162C25.9379 7.02835 23.031 5.82427 20 5.82427C16.969 5.82427 14.0621 7.02835 11.9188 9.17162C9.77551 11.3149 8.57143 14.2218 8.57143 17.2528C8.57143 20.8618 10.2768 24.0386 12.8884 26.1341C12.883 26.0296 12.8571 25.9305 12.8571 25.8243C12.8636 24.8179 13.1388 23.8314 13.6545 22.9671C12.5369 21.7422 11.8004 20.2183 11.5349 18.5816C11.2694 16.9449 11.4865 15.2663 12.1596 13.751C12.8327 12.2356 13.9326 10.9492 15.325 10.0489C16.7174 9.14858 18.3419 8.6734 20 8.68141Z" fill="#939393"/>
</svg>
