<svg width="40" height="27" viewBox="0 0 40 27" fill="none" xmlns="http://www.w3.org/2000/svg">
<path d="M38.3333 0H6.11111C5.19208 0 4.44444 0.757055 4.44444 1.6875V2.25H1.66667C0.746181 2.25 0 3.00551 0 3.9375V23.625C0 25.489 1.49236 27 3.33333 27H38.3333C39.2523 27 40 26.2429 40 25.3125V1.6875C40 0.757055 39.2523 0 38.3333 0ZM2.22222 23.625V4.5H4.44444V23.625C4.44444 24.2453 3.94597 24.75 3.33333 24.75C2.72069 24.75 2.22222 24.2453 2.22222 23.625ZM37.7778 24.75H6.47625C6.60248 24.3887 6.66688 24.0082 6.66667 23.625V2.25H37.7778V24.75ZM9.72222 18H21.3889C21.8491 18 22.2222 17.6222 22.2222 17.1562V5.34375C22.2222 4.87779 21.8491 4.5 21.3889 4.5H9.72222C9.26201 4.5 8.88889 4.87779 8.88889 5.34375V17.1562C8.88889 17.6222 9.26201 18 9.72222 18ZM11.1111 6.75H20V15.75H11.1111V6.75ZM8.88889 21.6562V21.0938C8.88889 20.6278 9.26201 20.25 9.72222 20.25H21.3889C21.8491 20.25 22.2222 20.6278 22.2222 21.0938V21.6562C22.2222 22.1222 21.8491 22.5 21.3889 22.5H9.72222C9.26201 22.5 8.88889 22.1222 8.88889 21.6562ZM24.4444 21.6562V21.0938C24.4444 20.6278 24.8176 20.25 25.2778 20.25H34.7222C35.1824 20.25 35.5556 20.6278 35.5556 21.0938V21.6562C35.5556 22.1222 35.1824 22.5 34.7222 22.5H25.2778C24.8176 22.5 24.4444 22.1222 24.4444 21.6562ZM24.4444 17.1562V16.5938C24.4444 16.1278 24.8176 15.75 25.2778 15.75H34.7222C35.1824 15.75 35.5556 16.1278 35.5556 16.5938V17.1562C35.5556 17.6222 35.1824 18 34.7222 18H25.2778C24.8176 18 24.4444 17.6222 24.4444 17.1562ZM24.4444 8.15625V7.59375C24.4444 7.12779 24.8176 6.75 25.2778 6.75H34.7222C35.1824 6.75 35.5556 7.12779 35.5556 7.59375V8.15625C35.5556 8.62221 35.1824 9 34.7222 9H25.2778C24.8176 9 24.4444 8.62221 24.4444 8.15625ZM24.4444 12.6562V12.0938C24.4444 11.6278 24.8176 11.25 25.2778 11.25H34.7222C35.1824 11.25 35.5556 11.6278 35.5556 12.0938V12.6562C35.5556 13.1222 35.1824 13.5 34.7222 13.5H25.2778C24.8176 13.5 24.4444 13.1222 24.4444 12.6562Z" fill="#2A86B1"/>
</svg>
