<svg width="40" height="32" viewBox="0 0 40 32" fill="none" xmlns="http://www.w3.org/2000/svg">
<path d="M35.7576 0H35.7465C34.0743 0.00833333 25.6944 0.613194 20.4993 3.33958C20.2181 3.48681 19.7819 3.48681 19.5007 3.33958C14.3049 0.613194 5.925 0.00833333 4.25347 0H4.24236C1.90278 0 0 1.83819 0 4.09792V24.7021C0 26.8833 1.76458 28.6799 4.01736 28.7924C6.43194 28.9146 12.4917 29.366 16.6486 30.9014C17.0146 31.0368 17.3875 31.1111 17.7771 31.1111H22.2215C22.6118 31.1111 22.9847 31.0361 23.3507 30.9014C27.5083 29.366 33.5674 28.9146 35.984 28.7924C38.2347 28.6799 39.9993 26.884 39.9993 24.7028V4.09792C40 1.83819 38.0972 0 35.7576 0ZM18.8889 27.8472C18.8889 28.4451 18.3931 28.8979 17.8292 28.8979C17.7062 28.8979 17.5799 28.8764 17.4549 28.8299C13.1181 27.2181 7.10833 26.7236 4.12778 26.5722C3.05903 26.5188 2.22222 25.6972 2.22222 24.7021V4.09792C2.22222 3.06389 3.12917 2.22292 4.24236 2.22292C5.58125 2.22986 12.7465 2.73542 17.584 4.88195C18.366 5.22917 18.8785 5.9757 18.8799 6.81528L18.8889 13.7819V27.8472ZM37.7778 24.7021C37.7778 25.6972 36.941 26.5188 35.8715 26.5722C32.891 26.7236 26.8813 27.2181 22.5444 28.8299C22.4194 28.8764 22.2931 28.8979 22.1701 28.8979C21.6069 28.8979 21.1104 28.4451 21.1104 27.8472V13.7819L21.1194 6.81528C21.1201 5.9757 21.6333 5.22917 22.4153 4.88195C27.2528 2.73542 34.4181 2.22986 35.7569 2.22292C36.8701 2.22292 37.7771 3.06389 37.7771 4.09792V24.7021H37.7778Z" fill="#939393"/>
</svg>
